<!--?xml version="1.0" encoding="utf-8"?-->
<!-- Generator: Adobe Illustrator 15.1.0, SVG Export Plug-In . SVG Version: 6.00 Build 0)  -->

<svg version="1.1" id="_x32_" xmlns="http://www.w3.org/2000/svg" xmlns:xlink="http://www.w3.org/1999/xlink" x="0px" y="0px" width="512px" height="512px" viewBox="0 0 512 512" style="width: 256px; height: 256px; opacity: 1;" xml:space="preserve">
<style type="text/css">

	.st0{fill:#4B4B4B;}

</style>
<g>
	<path class="st0" d="M122.922,366.016c0,0,0,0-0.016,0l-0.016,0.016L122.922,366.016z" style="fill: rgb(175, 175, 175);"></path>
	<path class="st0" d="M368.344,271.094h-0.063c0,0,0,0,0.016,0H368.344z" style="fill: rgb(175, 175, 175);"></path>
	<path class="st0" d="M466.984,42.906C440.516,16.406,403.844,0,363.453,0c-40.422,0-77.094,16.406-103.547,42.906
		c-26.484,26.453-42.891,63.125-42.891,103.531c0,3.797-0.047,11.531-0.094,18.281c-0.016,3.375-0.031,6.531-0.047,8.813
		c-0.016,2.313-0.031,3.75-0.031,3.75v0.234l2.609,74.609c-1.969-1.984-5-5-8.688-8.625c-6.219-6.094-14.203-13.75-21.844-20.594
		c-0.5-0.781-1.031-1.531-1.594-2.281c-1.656-2.25-3.563-4.469-5.531-6.641c-2.938-3.281-6.016-6.453-8.297-8.828
		c-0.047-0.047-0.094-0.078-0.141-0.125c0.891-5.266,1.484-10.5,1.484-15.688c0-3.875-0.328-7.75-1.25-11.594
		c-0.688-2.891-1.703-5.75-3.172-8.469c-2.188-4.094-5.469-7.844-9.578-10.656c-4.125-2.813-8.953-4.688-14.297-5.75l0,0
		c-1.547-0.313-3.125-0.469-4.672-0.469c-2.703,0-5.297,0.438-7.703,1.172c-4.234,1.266-7.969,3.297-11.391,5.734
		c-5.078,3.656-9.469,8.188-13.078,13.094c-1.797,2.438-3.406,4.969-4.75,7.594c-0.984,1.906-1.828,3.828-2.531,5.813
		c-10.172,2.219-19.156,5.953-26.969,10.813c-7.281,4.5-13.563,9.891-19.078,15.719c-8.281,8.75-14.922,18.469-20.922,27.969
		c-5.484,8.688-10.438,17.172-15.469,24.781c-0.734,0.406-1.563,0.875-2.438,1.453c-3,1.922-6.766,4.875-9.922,9.484
		c-1.578,2.297-2.969,5-3.953,8.078s-1.547,6.484-1.547,10.125c0,5.484,1.25,11.422,3.875,17.734
		c1.672,4.031,3.641,7.719,5.938,11.063c4.031,5.875,9.219,10.625,15.156,14c4.438,2.531,9.25,4.344,14.344,5.656
		c7.641,2,15.938,2.938,25.25,3.516c9.328,0.578,19.703,0.766,31.469,1.047c1.844,0.031,5.109,0.25,8.719,0.484
		c0.984,0.047,2.031,0.109,3.063,0.172l-3.406,3.938h-0.016c-0.453,0.531-1.047,0.875-1.734,1l-0.422,0.063l-27.734,7.344
		l-0.125,0.047c-2.391,0.703-4.766,1.703-7.156,3.063c-3.578,2.047-7.234,4.859-10.281,8.891c-1.516,2-2.859,4.328-3.844,6.969
		c-0.969,2.625-1.547,5.594-1.547,8.656c0,2.125,0.266,4.281,0.797,6.438c0.953,3.672,2.703,6.438,4.625,8.844
		c2.922,3.563,6.469,6.344,10.406,8.531c1.953,1.094,4.031,2,6.266,2.688s4.609,1.156,7.266,1.172c0.266,0,0.5-0.016,0.75-0.047
		l28.875,0.406c-0.438,2.859-0.641,5.734-0.641,8.594c0,5.828,0.828,11.594,2.188,17.5c0.594,2.5,1.297,5.047,2.063,7.609
		c-2.656,1.016-5.141,2.125-7.422,3.328c-3.891,2.063-7.266,4.438-10.109,7.031c-4.266,3.906-7.313,8.406-9.141,12.969
		c-1.859,4.563-2.516,9.094-2.516,13.125c0,5.922,1.344,10.859,2.641,14.422c1.297,3.547,2.578,5.781,2.844,6.203L95.703,512
		h164.016l3.063-5.719c0.203-0.406,2.563-4.859,5.547-12.984c11.328-2.859,22.75-8.438,33.875-16.219
		c19.875-13.953,38.844-35.016,53.031-61.359c14.172-26.344,23.516-58.031,23.516-92.938c0-9.938-0.781-20.125-2.391-30.5
		c1.891-0.156,3.781-0.344,5.641-0.594h0.109l0.719-0.094c35.875-4.75,67.625-22.484,90.406-48.281
		c22.781-25.781,36.641-59.766,36.641-96.875C509.875,106.031,493.469,69.359,466.984,42.906z M457,228.969
		c-19.453,22.031-46.5,37.109-77.016,41.141c-2.594,0.359-5.203,0.609-7.844,0.797h-0.156h-0.109c0,0-0.203,0.031-0.594,0.031h0.016
		c-0.984,0.063-2.016,0.125-3.078,0.172l0.063-0.016c-0.484,0.016-0.781,0.031-0.922,0.031h-0.109
		c-1.281,0.063-2.547,0.078-3.797,0.078c-0.797,0-1.641-0.016-2.484-0.047c-11.875-1.844-21.625-7.375-29.375-14.5
		c-7.734-7.125-13.406-16.656-16.484-28.281c-1.156-4.375-1.703-8.719-1.703-13.016c0-7.516,1.656-14.859,4.609-21.703
		c4.391-10.281,11.75-19.313,20.453-25.688c8.688-6.375,18.609-10,28.125-9.969c4.75,0,9.422,0.875,13.984,2.781l5.859-14
		c-6.469-2.688-13.203-3.953-19.844-3.953c-8.891,0.016-17.594,2.219-25.609,6.031c-12.031,5.734-22.594,15.078-30.266,26.578
		s-12.469,25.313-12.469,39.922c0,5.578,0.703,11.234,2.203,16.891c3.719,14.125,10.875,26.344,20.875,35.563
		c7.594,7,16.828,12.203,27.219,15.313c4.031,0.703,5.031,4.516,5.734,8.406c1.906,10.703,2.797,21.125,2.797,31.25
		c0,20.688-3.688,40.094-9.875,57.688c-9.297,26.406-24.313,48.781-40.75,64.906c-8.219,8.063-16.766,14.563-25.031,19.281
		c-8.219,4.688-16.156,7.563-22.969,8.594l-6.578,1l-2.078,6.344c-1.297,4-2.547,7.266-3.563,9.75H109.266
		c-0.313-1.375-0.547-2.828-0.531-4.281c0-1.516,0.219-3,0.719-4.438c0.391-1.078,0.922-2.141,1.766-3.297
		c1.266-1.703,3.234-3.641,6.609-5.609s8.141-3.922,14.703-5.531l11.688-2.813l-4.031-11.344
		c-2.125-5.938-3.781-11.219-4.875-15.938s-1.641-8.844-1.641-12.594c0.031-4,0.625-7.563,1.922-11.313
		c3.125-0.531,6.203-1.125,9.188-1.781c3.953-0.875,7.719-1.844,11.25-3.094c1.75-0.656,3.469-1.391,5.172-2.281
		c1.672-0.906,3.359-2,5-3.484c4.391-4.047,4.688-10.891,0.641-15.297s-10.844-4.688-15.25-0.688l0,0c0,0-0.344,0.234-0.969,0.531
		c-1.109,0.563-3.031,1.25-5.406,1.906c-3.563,1-8.172,1.938-13.141,2.828c-4.641,0.828-9.609,1.625-14.5,2.484l-34.094-0.469
		l-0.438,0.031h-0.016c-0.094,0-0.875-0.125-1.813-0.531c-1.438-0.594-3.25-1.766-4.422-2.906c-0.594-0.563-1.031-1.094-1.234-1.406
		l-0.094-0.188c-0.094-0.375-0.125-0.688-0.141-0.969c0.016-0.563,0.125-1,0.406-1.609c0.422-0.875,1.469-2.109,2.875-3.141
		c1.359-1.031,3.047-1.781,3.875-2l27-7.156c5.188-1.125,9.922-3.906,13.422-7.953l16.172-18.641L135.609,323l-11.797,3.156
		c-0.047,0.031-0.75,0.156-1.719,0.219c-0.984,0.109-2.25,0.141-3.672,0.141c-3.016,0-6.703-0.188-10.188-0.422
		c-3.531-0.203-6.813-0.438-9.609-0.531c-11.984-0.25-22.297-0.438-31-1.016c-6.531-0.391-12.141-1.016-16.844-1.938
		c-3.531-0.703-6.531-1.547-9.078-2.578c-3.844-1.531-6.609-3.344-9.063-5.797c-2.438-2.484-4.625-5.766-6.625-10.578
		c-1.734-4.156-2.219-7.25-2.219-9.422c0-2.234,0.453-3.641,1.063-4.891c0.469-0.906,1.063-1.719,1.766-2.469
		c1.031-1.063,2.313-1.969,3.328-2.531c0.5-0.281,0.922-0.5,1.281-0.672c0.172-0.078,0.328-0.141,0.578-0.266
		c0.141-0.063,0.266-0.125,0.625-0.313c0.188-0.094,0.406-0.219,0.859-0.5c0.234-0.156,0.531-0.344,0.984-0.719
		c0.219-0.188,0.5-0.406,0.828-0.75c0.344-0.344,0.75-0.781,1.25-1.484l0.047-0.078c5.484-8.094,10.422-16.531,15.469-24.656
		c7.531-12.188,15.328-23.594,24.828-32.188c4.766-4.313,9.922-7.938,15.797-10.781c5.891-2.844,12.516-4.938,20.344-6l8.547-1.172
		l0.781-8.578c0.078-0.891,0.203-1.625,0.406-2.281c0.406-1.563,1.469-3.969,3.016-6.375c2.297-3.672,5.688-7.469,8.984-10
		c1.641-1.25,3.234-2.203,4.547-2.75c1.297-0.563,2.281-0.719,2.75-0.688l0.422,0.016v0.016c2.734,0.531,4.578,1.313,5.859,2.078
		c0.969,0.594,1.609,1.172,2.172,1.859c0.828,0.969,1.5,2.219,2.031,4.078c0.516,1.828,0.828,4.281,0.828,7.203
		c0.016,4.656-0.781,10.469-2.047,16.813l-0.219,1.031v1.078c0.031,1.891,0.391,2.906,0.625,3.672
		c0.266,0.719,0.5,1.188,0.703,1.563c0.375,0.688,0.641,1.063,0.875,1.375c0.422,0.594,0.703,0.938,1.016,1.313
		c0.578,0.656,1.141,1.266,1.797,1.969c1.156,1.219,2.547,2.656,4.078,4.25c2.266,2.344,4.813,5.031,6.922,7.469
		c1.063,1.219,2.016,2.375,2.75,3.313c0.719,0.953,1.234,1.75,1.359,1.969l0.906,1.641l1.375,1.234
		c7.547,6.719,15.875,14.688,22.281,20.953c3.188,3.141,5.906,5.828,7.828,7.766c0.969,0.969,1.719,1.719,2.234,2.25
		c0.25,0.25,0.453,0.469,0.578,0.594l0.203,0.188l0.219,0.219l0.25,0.25c3.859,3.469,8.797,5.297,13.781,5.297
		c3.281,0,6.594-0.797,9.609-2.391h0.016c6.797-3.609,10.938-10.625,10.938-18.188c0-0.563-0.063-1.125-0.109-1.688h0.016
		l-2.656-76.078c0.016-2.359,0.156-23.391,0.156-30.766c0.016-34.5,13.953-65.609,36.547-88.219
		c22.609-22.594,53.734-36.547,88.234-36.563c34.469,0.016,65.609,13.969,88.219,36.563c22.594,22.609,36.531,53.719,36.531,88.219
		C488.203,178.141,476.438,206.953,457,228.969z" style="fill: rgb(175, 175, 175);"></path>
	<path class="st0" d="M88.828,257.375c-6,0-10.844,4.844-10.844,10.828s4.844,10.828,10.844,10.828
		c5.969,0,10.828-4.844,10.828-10.828S94.797,257.375,88.828,257.375z" style="fill: rgb(175, 175, 175);"></path>
</g>
</svg>
